<svg width="250" height="84" viewBox="0 0 250 84" fill="none" xmlns="http://www.w3.org/2000/svg">
<g id="Rectangle 835">
<path d="M0 23.92C0 22.1367 0 21.245 0.0946236 20.496C0.781202 15.0612 5.06117 10.7812 10.496 10.0946C11.245 10 12.1367 10 13.92 10H196.483C196.553 10 196.588 10 196.622 9.99775C196.858 9.98187 197.081 9.88246 197.251 9.71725C197.275 9.69389 197.299 9.66793 197.346 9.616L205.138 0.958024C205.247 0.83666 205.302 0.775978 205.353 0.732526C205.726 0.415621 206.274 0.415621 206.647 0.732526C206.698 0.775978 206.753 0.83666 206.862 0.958024L214.654 9.616C214.701 9.66793 214.725 9.69389 214.749 9.71725C214.919 9.88246 215.142 9.98187 215.378 9.99775C215.412 10 215.447 10 215.517 10H236.08C237.863 10 238.755 10 239.504 10.0946C244.939 10.7812 249.219 15.0612 249.905 20.496C250 21.245 250 22.1367 250 23.92V70.08C250 71.8633 250 72.755 249.905 73.504C249.219 78.9388 244.939 83.2188 239.504 83.9054C238.755 84 237.863 84 236.08 84H13.92C12.1367 84 11.245 84 10.496 83.9054C5.06117 83.2188 0.781202 78.9388 0.0946236 73.504C0 72.755 0 71.8633 0 70.08V23.92Z" fill="url(#paint0_linear_2593_58553)"/>
<path d="M0 23.92C0 22.1367 0 21.245 0.0946236 20.496C0.781202 15.0612 5.06117 10.7812 10.496 10.0946C11.245 10 12.1367 10 13.92 10H196.483C196.553 10 196.588 10 196.622 9.99775C196.858 9.98187 197.081 9.88246 197.251 9.71725C197.275 9.69389 197.299 9.66793 197.346 9.616L205.138 0.958024C205.247 0.83666 205.302 0.775978 205.353 0.732526C205.726 0.415621 206.274 0.415621 206.647 0.732526C206.698 0.775978 206.753 0.83666 206.862 0.958024L214.654 9.616C214.701 9.66793 214.725 9.69389 214.749 9.71725C214.919 9.88246 215.142 9.98187 215.378 9.99775C215.412 10 215.447 10 215.517 10H236.08C237.863 10 238.755 10 239.504 10.0946C244.939 10.7812 249.219 15.0612 249.905 20.496C250 21.245 250 22.1367 250 23.92V70.08C250 71.8633 250 72.755 249.905 73.504C249.219 78.9388 244.939 83.2188 239.504 83.9054C238.755 84 237.863 84 236.08 84H13.92C12.1367 84 11.245 84 10.496 83.9054C5.06117 83.2188 0.781202 78.9388 0.0946236 73.504C0 72.755 0 71.8633 0 70.08V23.92Z" fill="url(#paint1_radial_2593_58553)"/>
<path d="M0 23.92C0 22.1367 0 21.245 0.0946236 20.496C0.781202 15.0612 5.06117 10.7812 10.496 10.0946C11.245 10 12.1367 10 13.92 10H196.483C196.553 10 196.588 10 196.622 9.99775C196.858 9.98187 197.081 9.88246 197.251 9.71725C197.275 9.69389 197.299 9.66793 197.346 9.616L205.138 0.958024C205.247 0.83666 205.302 0.775978 205.353 0.732526C205.726 0.415621 206.274 0.415621 206.647 0.732526C206.698 0.775978 206.753 0.83666 206.862 0.958024L214.654 9.616C214.701 9.66793 214.725 9.69389 214.749 9.71725C214.919 9.88246 215.142 9.98187 215.378 9.99775C215.412 10 215.447 10 215.517 10H236.08C237.863 10 238.755 10 239.504 10.0946C244.939 10.7812 249.219 15.0612 249.905 20.496C250 21.245 250 22.1367 250 23.92V70.08C250 71.8633 250 72.755 249.905 73.504C249.219 78.9388 244.939 83.2188 239.504 83.9054C238.755 84 237.863 84 236.08 84H13.92C12.1367 84 11.245 84 10.496 83.9054C5.06117 83.2188 0.781202 78.9388 0.0946236 73.504C0 72.755 0 71.8633 0 70.08V23.92Z" fill="url(#paint2_radial_2593_58553)"/>
<path d="M0 23.92C0 22.1367 0 21.245 0.0946236 20.496C0.781202 15.0612 5.06117 10.7812 10.496 10.0946C11.245 10 12.1367 10 13.92 10H196.483C196.553 10 196.588 10 196.622 9.99775C196.858 9.98187 197.081 9.88246 197.251 9.71725C197.275 9.69389 197.299 9.66793 197.346 9.616L205.138 0.958024C205.247 0.83666 205.302 0.775978 205.353 0.732526C205.726 0.415621 206.274 0.415621 206.647 0.732526C206.698 0.775978 206.753 0.83666 206.862 0.958024L214.654 9.616C214.701 9.66793 214.725 9.69389 214.749 9.71725C214.919 9.88246 215.142 9.98187 215.378 9.99775C215.412 10 215.447 10 215.517 10H236.08C237.863 10 238.755 10 239.504 10.0946C244.939 10.7812 249.219 15.0612 249.905 20.496C250 21.245 250 22.1367 250 23.92V70.08C250 71.8633 250 72.755 249.905 73.504C249.219 78.9388 244.939 83.2188 239.504 83.9054C238.755 84 237.863 84 236.08 84H13.92C12.1367 84 11.245 84 10.496 83.9054C5.06117 83.2188 0.781202 78.9388 0.0946236 73.504C0 72.755 0 71.8633 0 70.08V23.92Z" fill="url(#paint3_radial_2593_58553)"/>
<path d="M0 23.92C0 22.1367 0 21.245 0.0946236 20.496C0.781202 15.0612 5.06117 10.7812 10.496 10.0946C11.245 10 12.1367 10 13.92 10H196.483C196.553 10 196.588 10 196.622 9.99775C196.858 9.98187 197.081 9.88246 197.251 9.71725C197.275 9.69389 197.299 9.66793 197.346 9.616L205.138 0.958024C205.247 0.83666 205.302 0.775978 205.353 0.732526C205.726 0.415621 206.274 0.415621 206.647 0.732526C206.698 0.775978 206.753 0.83666 206.862 0.958024L214.654 9.616C214.701 9.66793 214.725 9.69389 214.749 9.71725C214.919 9.88246 215.142 9.98187 215.378 9.99775C215.412 10 215.447 10 215.517 10H236.08C237.863 10 238.755 10 239.504 10.0946C244.939 10.7812 249.219 15.0612 249.905 20.496C250 21.245 250 22.1367 250 23.92V70.08C250 71.8633 250 72.755 249.905 73.504C249.219 78.9388 244.939 83.2188 239.504 83.9054C238.755 84 237.863 84 236.08 84H13.92C12.1367 84 11.245 84 10.496 83.9054C5.06117 83.2188 0.781202 78.9388 0.0946236 73.504C0 72.755 0 71.8633 0 70.08V23.92Z" fill="url(#paint4_radial_2593_58553)" fill-opacity="0.4"/>
<path d="M0 23.92C0 22.1367 0 21.245 0.0946236 20.496C0.781202 15.0612 5.06117 10.7812 10.496 10.0946C11.245 10 12.1367 10 13.92 10H196.483C196.553 10 196.588 10 196.622 9.99775C196.858 9.98187 197.081 9.88246 197.251 9.71725C197.275 9.69389 197.299 9.66793 197.346 9.616L205.138 0.958024C205.247 0.83666 205.302 0.775978 205.353 0.732526C205.726 0.415621 206.274 0.415621 206.647 0.732526C206.698 0.775978 206.753 0.83666 206.862 0.958024L214.654 9.616C214.701 9.66793 214.725 9.69389 214.749 9.71725C214.919 9.88246 215.142 9.98187 215.378 9.99775C215.412 10 215.447 10 215.517 10H236.08C237.863 10 238.755 10 239.504 10.0946C244.939 10.7812 249.219 15.0612 249.905 20.496C250 21.245 250 22.1367 250 23.92V70.08C250 71.8633 250 72.755 249.905 73.504C249.219 78.9388 244.939 83.2188 239.504 83.9054C238.755 84 237.863 84 236.08 84H13.92C12.1367 84 11.245 84 10.496 83.9054C5.06117 83.2188 0.781202 78.9388 0.0946236 73.504C0 72.755 0 71.8633 0 70.08V23.92Z" fill="white" fill-opacity="0.1"/>
<path d="M0.5 23.92C0.5 22.1214 0.500994 21.2686 0.590681 20.5587C1.24865 15.3503 5.35029 11.2487 10.5587 10.5907C11.2686 10.501 12.1214 10.5 13.92 10.5H196.483C196.547 10.5 196.601 10.5003 196.655 10.4966C197.01 10.4728 197.345 10.3237 197.6 10.0759C197.636 10.0404 197.671 10.0024 197.71 9.95905L197.717 9.95044L205.509 1.29251C205.63 1.15858 205.657 1.12985 205.676 1.11368C205.863 0.955234 206.137 0.955234 206.324 1.11369C206.343 1.12985 206.37 1.15858 206.491 1.29252L214.283 9.95048C214.325 9.99746 214.361 10.0381 214.4 10.0759C214.655 10.3237 214.99 10.4728 215.345 10.4966C215.396 10.5 215.447 10.5 215.505 10.5L215.517 10.5H236.08C237.879 10.5 238.731 10.501 239.441 10.5907C244.65 11.2487 248.751 15.3503 249.409 20.5587C249.499 21.2686 249.5 22.1214 249.5 23.92V70.08C249.5 71.8786 249.499 72.7314 249.409 73.4413C248.751 78.6497 244.65 82.7513 239.441 83.4093C238.731 83.499 237.879 83.5 236.08 83.5H13.92C12.1214 83.5 11.2686 83.499 10.5587 83.4093C5.35029 82.7513 1.24865 78.6497 0.590681 73.4413C0.500994 72.7314 0.5 71.8786 0.5 70.08V23.92Z" stroke="url(#paint5_linear_2593_58553)" stroke-opacity="0.5"/>
</g>
<defs>
<linearGradient id="paint0_linear_2593_58553" x1="-8.50001" y1="9.00001" x2="250" y2="106" gradientUnits="userSpaceOnUse">
<stop stop-color="#9FDCFC"/>
<stop offset="1" stop-color="#E4F6FD"/>
</linearGradient>
<radialGradient id="paint1_radial_2593_58553" cx="0" cy="0" r="1" gradientUnits="userSpaceOnUse" gradientTransform="translate(215.5 63.4999) rotate(160.652) scale(138.842 327.82)">
<stop stop-color="#D2F6CE"/>
<stop offset="1" stop-color="#D2F6CE" stop-opacity="0"/>
</radialGradient>
<radialGradient id="paint2_radial_2593_58553" cx="0" cy="0" r="1" gradientUnits="userSpaceOnUse" gradientTransform="translate(152 8.99999) rotate(-81.0062) scale(70.3651 79.949)">
<stop stop-color="white" stop-opacity="0.5"/>
<stop offset="1" stop-color="white" stop-opacity="0"/>
</radialGradient>
<radialGradient id="paint3_radial_2593_58553" cx="0" cy="0" r="1" gradientUnits="userSpaceOnUse" gradientTransform="translate(20 84) rotate(-35.4457) scale(72.4224 62.9346)">
<stop stop-color="#AC6EEA" stop-opacity="0.4"/>
<stop offset="1" stop-color="#AC6EEA" stop-opacity="0"/>
</radialGradient>
<radialGradient id="paint4_radial_2593_58553" cx="0" cy="0" r="1" gradientUnits="userSpaceOnUse" gradientTransform="translate(247 9.50009) rotate(143.549) scale(54.7014 157.592)">
<stop stop-color="#FFEA7D"/>
<stop offset="1" stop-color="#FFEA7D" stop-opacity="0"/>
</radialGradient>
<linearGradient id="paint5_linear_2593_58553" x1="125" y1="0" x2="125" y2="84" gradientUnits="userSpaceOnUse">
<stop stop-color="#E6E8DE"/>
<stop offset="1" stop-color="#869BB5"/>
</linearGradient>
</defs>
</svg>
