<svg width="16" height="16" viewBox="0 0 16 16" fill="none" xmlns="http://www.w3.org/2000/svg">
<g id="icons/bubble_fill">
<path id="Union" fill-rule="evenodd" clip-rule="evenodd" d="M2 8C2 4.68629 4.68629 2 8 2C11.3137 2 14 4.68629 14 8C14 9.54498 13.4161 10.9536 12.4568 12.0171L12.9757 13.3143C13.1071 13.6427 12.8652 14 12.5115 14L8 14C4.68629 14 2 11.3137 2 8ZM8.75 8C8.75 8.41421 8.41421 8.75 8 8.75C7.58579 8.75 7.25 8.41421 7.25 8C7.25 7.58579 7.58579 7.25 8 7.25C8.41421 7.25 8.75 7.58579 8.75 8ZM5 8.75C5.41421 8.75 5.75 8.41421 5.75 8C5.75 7.58579 5.41421 7.25 5 7.25C4.58579 7.25 4.25 7.58579 4.25 8C4.25 8.41421 4.58579 8.75 5 8.75ZM11.75 8C11.75 8.41421 11.4142 8.75 11 8.75C10.5858 8.75 10.25 8.41421 10.25 8C10.25 7.58579 10.5858 7.25 11 7.25C11.4142 7.25 11.75 7.58579 11.75 8Z" fill="#464E53"/>
</g>
</svg>
