<svg width="16" height="16" viewBox="0 0 16 16" fill="none" xmlns="http://www.w3.org/2000/svg">
<g id="icons/arrows_round">
<g id="Union">
<path d="M2.56815 5.42931C3.66158 3.12444 6.15806 1.68869 8.82183 2.0576C11.7488 2.46295 13.8878 4.9101 13.9995 7.75921C14.0096 8.01832 13.875 8.26166 13.65 8.39099C13.425 8.52032 13.1467 8.51429 12.9275 8.37533L10.9538 7.17127C10.6282 6.96484 10.5318 6.53387 10.7385 6.20866C10.9452 5.88345 11.3767 5.78715 11.7023 5.99358L12.2895 6.31871C11.6997 4.82075 10.3393 3.67599 8.63001 3.43928C6.60399 3.1587 4.70213 4.2391 3.85207 5.98122C3.69843 6.29609 3.34436 6.48102 3.01117 6.3727C2.61093 6.24259 2.38777 5.80954 2.56815 5.42931Z" fill="#464E53"/>
<path d="M2.32494 7.74722C2.54039 7.61107 2.81301 7.60302 3.03615 7.72622L4.93277 8.74325C5.27028 8.92961 5.39264 9.35397 5.20605 9.69107C5.01946 10.0282 4.59459 10.1504 4.25708 9.96403L3.70805 9.69107C4.29995 11.1843 5.65826 12.3245 7.36372 12.5607C9.35236 12.8361 11.2215 11.8003 12.0937 10.1143C12.2546 9.80317 12.6129 9.62656 12.9435 9.74262C13.3406 9.88204 13.5536 10.3201 13.3643 10.696C12.241 12.9273 9.78714 14.3046 7.17191 13.9424C4.29267 13.5437 2.17604 11.1692 2.00137 8.38015C1.98545 8.12599 2.10948 7.88338 2.32494 7.74722Z" fill="#464E53"/>
</g>
</g>
</svg>
