<svg width="24" height="24" viewBox="0 0 24 24" fill="none" xmlns="http://www.w3.org/2000/svg">
<g id="icons/stars_in_cube">
<path id="Star 2" d="M16.4832 11.3703C16.6643 10.8876 17.3357 10.8876 17.5168 11.3703L18.0995 12.9233C18.4447 13.8435 19.1679 14.5644 20.0794 14.8971L21.6337 15.4643C22.1221 15.6425 22.1221 16.3451 21.6337 16.5234L20.2487 17.0288C19.2411 17.3965 18.4698 18.2359 18.1771 19.2831L17.5321 21.5912C17.3798 22.1363 16.6202 22.1363 16.4679 21.5912L15.8229 19.2831C15.5302 18.2359 14.7589 17.3965 13.7513 17.0288L12.3663 16.5234C11.8779 16.3451 11.8779 15.6425 12.3663 15.4643L13.9206 14.8971C14.8321 14.5644 15.5553 13.8435 15.9005 12.9233L16.4832 11.3703Z" fill="#464E53"/>
<path id="Star 3" d="M21.0151 19.5205C21.0803 19.3625 21.3219 19.3625 21.387 19.5205L21.5967 20.0289C21.7209 20.3301 21.9811 20.5661 22.309 20.675L22.8683 20.8607C23.044 20.919 23.044 21.149 22.8683 21.2073L22.3699 21.3728C22.0074 21.4931 21.7299 21.7679 21.6246 22.1107L21.3925 22.8662C21.3377 23.0446 21.0644 23.0446 21.0096 22.8662L20.7776 22.1107C20.6723 21.7679 20.3947 21.4931 20.0322 21.3728L19.5339 21.2073C19.3582 21.149 19.3582 20.919 19.5339 20.8607L20.0931 20.675C20.4211 20.5661 20.6813 20.3301 20.8055 20.0289L21.0151 19.5205Z" fill="#464E53"/>
<rect id="Rectangle 834" x="2" y="3.70001" width="2.4" height="2.4" rx="1.2" fill="#464E53"/>
<rect id="Rectangle 836" x="2" y="9.64999" width="2.4" height="2.4" rx="1.2" fill="#464E53"/>
<rect id="Rectangle 838" x="2" y="15.55" width="2.4" height="2.4" rx="1.2" fill="#464E53"/>
<rect id="Rectangle 835" x="6" y="4" width="15" height="1.5" rx="0.75" fill="#464E53"/>
<rect id="Rectangle 837" x="6" y="10" width="8" height="1.5" rx="0.75" fill="#464E53"/>
<rect id="Rectangle 839" x="6" y="16" width="4" height="1.5" rx="0.75" fill="#464E53"/>
</g>
</svg>
